<?xml version="1.0" encoding="UTF-8" standalone="no"?>
<!-- Created with Inkscape (http://www.inkscape.org/) -->

<svg
   xmlns:dc="http://purl.org/dc/elements/1.1/"
   xmlns:cc="http://creativecommons.org/ns#"
   xmlns:rdf="http://www.w3.org/1999/02/22-rdf-syntax-ns#"
   xmlns:svg="http://www.w3.org/2000/svg"
   xmlns="http://www.w3.org/2000/svg"
   xmlns:sodipodi="http://sodipodi.sourceforge.net/DTD/sodipodi-0.dtd"
   xmlns:inkscape="http://www.inkscape.org/namespaces/inkscape"
   width="210mm"
   height="297mm"
   viewBox="0 0 210 297"
   version="1.1"
   id="svg8"
   inkscape:version="0.92.2 (5c3e80d, 2017-08-06)"
   sodipodi:docname="packetflix.svg"
   inkscape:export-filename="D:\UserData\adalha0\packetflix.png"
   inkscape:export-xdpi="96"
   inkscape:export-ydpi="96">
  <defs
     id="defs2">
    <inkscape:path-effect
       effect="envelope"
       id="path-effect959"
       is_visible="true"
       yy="true"
       xx="true"
       bendpath1="M 3.2581548,2.623072 H 57.722162"
       bendpath2="M 57.722162,2.623072 V 13.641874"
       bendpath3="m 3.2581548,13.641874 c 17.6826172,-2.21618 35.7742742,-2.512006 54.4640072,0"
       bendpath4="M 3.2581548,2.623072 V 13.641874"
       bendpath3-nodetypes="cc" />
    <inkscape:path-effect
       effect="lattice2"
       gridpoint0="3.2581548,2.623072"
       gridpoint1="57.722162,2.623072"
       gridpoint2="3.2581548,13.641874"
       gridpoint3="57.722162,13.641874"
       gridpoint4="16.874157,2.623072"
       gridpoint5="44.10616,2.623072"
       gridpoint6="16.874157,13.641874"
       gridpoint7="44.10616,13.641874"
       gridpoint8x9="30.490158,2.623072"
       gridpoint10x11="30.490158,13.641874"
       gridpoint12="3.2581548,5.3777725"
       gridpoint13="57.722162,5.3777725"
       gridpoint14="3.2581548,10.887173"
       gridpoint15="57.722162,10.887173"
       gridpoint16="16.874157,5.3777725"
       gridpoint17="44.10616,5.3777725"
       gridpoint18="16.874157,10.887173"
       gridpoint19="44.10616,10.887173"
       gridpoint20x21="30.490158,5.3777725"
       gridpoint22x23="30.490158,10.887173"
       gridpoint24x26="3.2581548,8.132473"
       gridpoint25x27="57.722162,8.132473"
       gridpoint28x30="16.874157,8.132473"
       gridpoint29x31="44.10616,8.132473"
       gridpoint32x33x34x35="30.490158,8.132473"
       id="path-effect957"
       is_visible="true"
       horizontal_mirror="false"
       vertical_mirror="false"
       live_update="true" />
    <inkscape:path-effect
       effect="envelope"
       id="path-effect4548"
       is_visible="true"
       yy="true"
       xx="true"
       bendpath1="M 4.3920828,4.0306511 H 63.666421"
       bendpath2="M 63.666421,4.0306511 V 17.184784"
       bendpath3="m 4.3920828,17.184784 c 19.3024402,-1.966192 38.8842842,-2.726779 59.2743382,0"
       bendpath4="M 4.3920828,4.0306511 V 17.184784"
       bendpath3-nodetypes="cc" />
  </defs>
  <sodipodi:namedview
     id="base"
     pagecolor="#ffffff"
     bordercolor="#666666"
     borderopacity="1.0"
     inkscape:pageopacity="0.0"
     inkscape:pageshadow="2"
     inkscape:zoom="1.4"
     inkscape:cx="-28.323959"
     inkscape:cy="791.49876"
     inkscape:document-units="mm"
     inkscape:current-layer="layer1"
     showgrid="false"
     inkscape:window-width="1920"
     inkscape:window-height="1137"
     inkscape:window-x="-32000"
     inkscape:window-y="-32000"
     inkscape:window-maximized="0"
     inkscape:snap-global="false" />
  <metadata
     id="metadata5">
    <rdf:RDF>
      <cc:Work
         rdf:about="">
        <dc:format>image/svg+xml</dc:format>
        <dc:type
           rdf:resource="http://purl.org/dc/dcmitype/StillImage" />
        <dc:title />
      </cc:Work>
    </rdf:RDF>
  </metadata>
  <g
     inkscape:label="Ebene 1"
     inkscape:groupmode="layer"
     id="layer1">
    <g
       aria-label="PACKETFLIX"
       style="font-style:normal;font-weight:normal;font-size:15.38938808px;line-height:1.25;font-family:sans-serif;letter-spacing:0px;word-spacing:0px;fill:#009999;fill-opacity:1;stroke:none;stroke-width:0.38473469"
       id="text916"
       transform="matrix(1,0,0,1.1715142,0,-0.44989408)"
       inkscape:path-effect="#path-effect959"
       inkscape:export-xdpi="96"
       inkscape:export-ydpi="96">
      <path
         d="m 5.740245,2.7421547 c 0.089846,-7.41e-5 -2.5822827,0.00193 -2.4924369,0.00185 C 3.048344,6.3473791 3.0490525,9.9380018 3.247525,13.516788 3.8101293,13.483598 4.3732429,13.447009 4.9358811,13.407851 4.8652233,12.234843 4.90637,10.689022 4.9201115,9.4589239 5.1842157,9.4561407 5.4484798,9.4528516 5.7128069,9.449107 7.390066,9.4253456 8.2297976,8.4822985 8.2181437,6.7664096 8.2149764,6.3000792 8.2106146,5.8329517 8.2085554,5.3672035 8.2009782,3.6534652 7.4259667,2.7407646 5.740245,2.7421547 Z m -0.045928,1.5284864 c 0.5381704,-0.00385 0.8235308,0.2385625 0.8287987,1.007123 0.00293,0.427117 0.012126,1.1902314 0.015053,1.6173484 0.00634,0.7693746 -0.2855266,1.0187058 -0.818152,1.0236276 -0.2641397,0.00244 -0.5282064,0.00452 -0.7921045,0.00619 -0.00228,-1.2150557 -0.035681,-2.4349669 -0.030781,-3.6488908 0.00758,-4.83e-5 0.789602,-0.00535 0.7971852,-0.0054 z"
         style="font-style:normal;font-variant:normal;font-weight:normal;font-stretch:normal;font-family:'Bebas Neue';-inkscape-font-specification:'Bebas Neue';fill:#009999;fill-opacity:1;stroke-width:0.38473469"
         id="path936"
         inkscape:connector-curvature="0"
         inkscape:original-d="M 5.7512357,2.7461871 H 3.2581548 V 13.518759 H 4.9509875 V 9.4713497 h 0.8002482 c 1.6928327,0 2.5238597,-0.9387527 2.5238597,-2.6623641 V 5.4085513 c 0,-1.7236115 -0.831027,-2.6623642 -2.5238597,-2.6623642 z m 0,1.5389388 c 0.5386286,0 0.831027,0.2462302 0.831027,1.0156996 v 1.6158858 c 0,0.7694694 -0.2923984,1.0156996 -0.831027,1.0156996 H 4.9509875 v -3.647285 z" />
      <path
         d="m 12.592757,2.735712 c -3.1524259,0.0031 0.674502,-6.653e-4 -2.477924,0.00244 C 9.9746017,3.3366945 8.4096516,12.880769 8.3793426,13.141858 c 0.5166036,-0.04297 1.0347209,-0.08705 1.5515435,-0.131514 0.058945,-0.535536 0.1478339,-1.121641 0.2414099,-1.705257 0.689594,-0.03393 1.383899,-0.06944 2.074547,-0.105212 0.100502,0.559775 0.211007,1.096792 0.34332,1.579574 0.569978,-0.04946 1.137173,-0.09835 1.707487,-0.146659 -0.342395,-1.142382 -1.505658,-7.9851423 -1.704893,-9.897078 z m -1.399894,1.8476247 c 3.6e-5,-4e-7 0.03072,-3.604e-4 0.03076,-3.609e-4 0.02805,0.1998143 0.778719,5.2053609 0.794273,5.3069141 -0.542115,0.019289 -1.085283,0.038146 -1.626578,0.056118 0.277235,-1.7242863 0.518747,-3.5738061 0.801549,-5.362671 z"
         style="font-style:normal;font-variant:normal;font-weight:normal;font-stretch:normal;font-family:'Bebas Neue';-inkscape-font-specification:'Bebas Neue';fill:#009999;fill-opacity:1;stroke-width:0.38473469"
         id="path938"
         inkscape:connector-curvature="0"
         inkscape:original-d="M 12.603842,2.7461871 H 10.12615 L 8.4025389,13.518759 h 1.5543282 l 0.2923979,-1.954453 h 2.077568 l 0.292398,1.954453 h 1.708222 z m -1.338877,1.9082841 h 0.03078 l 0.800248,5.4478438 h -1.631275 z" />
      <path
         d="m 18.305657,9.1267982 c -9.58e-4,0.4508188 -0.002,0.9285348 -4.86e-4,1.3402038 0.0023,0.628606 -0.330679,0.851541 -0.871667,0.881066 -0.539081,0.02942 -0.885572,-0.159583 -0.887459,-0.805542 -0.0048,-1.6426368 -0.0051,-3.5925567 0.0061,-5.4731982 0.0044,-0.7454749 0.35293,-1.0240213 0.89177,-1.0288962 0.540864,-0.00489 0.87182,0.2663213 0.86715,1.0052958 -0.0023,0.3662268 -0.003,0.7486602 -0.0031,1.1175886 -0.04315,7.285e-4 1.648911,-0.026835 1.605757,-0.026107 3e-4,-0.3334141 9.8e-4,-0.6769383 0.0028,-1.0082381 0.0091,-1.6517729 -0.808615,-2.5082132 -2.463533,-2.5082451 -1.666119,-3.22e-5 -2.589771,0.8802661 -2.596806,2.577647 -0.0076,1.8249149 -0.0073,3.7022749 -0.0056,5.3269948 0.0015,1.512108 0.915625,2.065667 2.582875,1.934462 1.656701,-0.130376 2.482316,-0.759099 2.477976,-2.145136 -0.0012,-0.3813274 -5.97e-4,-0.8175302 6.4e-5,-1.2343452 -0.535992,0.014856 -1.070359,0.030376 -1.605772,0.046449 z"
         style="font-style:normal;font-variant:normal;font-weight:normal;font-stretch:normal;font-family:'Bebas Neue';-inkscape-font-specification:'Bebas Neue';fill:#009999;fill-opacity:1;stroke-width:0.38473469"
         id="path940"
         inkscape:connector-curvature="0"
         inkscape:original-d="m 18.37943,9.5021285 v 1.5389385 c 0,0.76947 -0.338566,1.046479 -0.877195,1.046479 -0.538628,0 -0.877195,-0.277009 -0.877195,-1.046479 V 5.2238786 c 0,-0.7694694 0.338567,-1.0618678 0.877195,-1.0618678 0.538629,0 0.877195,0.2923984 0.877195,1.0618678 v 1.1542041 h 1.600497 V 5.3316043 c 0,-1.7236115 -0.861806,-2.7085323 -2.52386,-2.7085323 -1.662054,0 -2.523859,0.9849208 -2.523859,2.7085323 v 5.6017377 c 0,1.723611 0.861805,2.708532 2.523859,2.708532 1.662054,0 2.52386,-0.984921 2.52386,-2.708532 V 9.5021285 Z" />
      <path
         d="m 24.871215,11.935646 c 0.58154,-0.0229 1.162527,-0.04265 1.744202,-0.05911 -0.815369,-1.059614 -1.608396,-2.8319036 -2.392223,-4.6852279 0.787148,-1.5132813 1.581349,-3.1044978 2.394983,-4.4658801 -0.0075,2.4e-6 -1.68623,6.477e-4 -1.693751,6.501e-4 -0.760579,1.3178506 -1.509287,2.8881973 -2.233097,4.355902 -7e-6,1e-7 -0.03093,4.699e-4 -0.03094,4.7e-4 4.09e-4,-1.3631311 -0.0038,-3.1182957 0.04683,-4.3552163 -0.01526,9.1e-6 -1.67836,0.00109 -1.693622,0.0011 -0.08135,1.7050831 -0.05847,8.6726601 -0.0147,9.4034481 0.565648,-0.03461 1.130739,-0.06677 1.696624,-0.0963 -0.03312,-0.621502 -0.03637,-1.497514 -0.03666,-2.4108612 0.175622,-0.2833728 0.350589,-0.5732111 0.52653,-0.8707944 0.549155,1.2645006 1.103554,2.4033656 1.685816,3.1818276 z"
         style="font-style:normal;font-variant:normal;font-weight:normal;font-stretch:normal;font-family:'Bebas Neue';-inkscape-font-specification:'Bebas Neue';fill:#009999;fill-opacity:1;stroke-width:0.38473469"
         id="path942"
         inkscape:connector-curvature="0"
         inkscape:original-d="m 24.884815,13.518759 h 1.739001 L 24.269239,7.5476762 26.623816,2.7461871 H 24.930983 L 22.74569,7.4091717 H 22.71491 V 2.7461871 H 21.022078 V 13.518759 h 1.692833 V 10.21004 L 23.23815,9.2251195 Z" />
      <path
         d="m 29.075,4.0867032 c 0.9809,-0.00147 1.958417,-0.00164 2.939365,-5.109e-4 -0.0012,-0.4678435 -0.0029,-0.9281112 -0.0059,-1.3613763 -1.5e-5,0 -4.619492,3.845e-4 -4.619477,3.845e-4 -0.03401,1.8475618 -0.02186,8.3842435 -7.73e-4,9.1314125 1.547591,-0.03595 3.084149,-0.04783 4.631735,-0.0349 7.5e-4,-0.27307 8.09e-4,-0.597314 5.99e-4,-0.950643 -0.982295,-0.0061 -1.961269,-0.005 -2.943571,0.0032 -0.0036,-0.686299 -0.004,-1.6506006 -0.0042,-2.5507065 0.780898,-0.00342 1.559756,-0.00441 2.340719,-0.00294 -6.1e-5,-0.089786 -6.57e-4,-1.3275672 -7.18e-4,-1.4173532 -0.780816,-0.00112 -1.559522,-3.722e-4 -2.340269,0.00221 -9.9e-5,-0.8839016 -1.75e-4,-1.959037 0.0025,-2.8187688 z"
         style="font-style:normal;font-variant:normal;font-weight:normal;font-stretch:normal;font-family:'Bebas Neue';-inkscape-font-specification:'Bebas Neue';fill:#009999;fill-opacity:1;stroke-width:0.38473469"
         id="path944"
         inkscape:connector-curvature="0"
         inkscape:original-d="m 29.087079,4.2851259 h 2.923983 V 2.7461871 H 27.394246 V 13.518759 h 4.616816 V 11.97982 H 29.087079 V 8.8249954 h 2.323797 V 7.2860566 h -2.323797 z" />
      <path
         d="m 32.558726,4.0869524 c 0.0043,7e-6 1.774707,0.00432 1.778959,0.00433 0.01134,1.6739663 0.01031,7.2442641 6.41e-4,7.7681951 0.566107,0.01367 1.131541,0.03056 1.69747,0.05057 0.01713,-0.584388 0.01982,-6.0998568 0.0032,-7.8120513 0.01147,5.35e-5 1.766712,0.00952 1.778177,0.00958 -0.0059,-0.4730421 -0.01535,-0.940078 -0.03152,-1.3808941 0.05678,3.04e-5 -5.292093,-0.00182 -5.235315,-0.00179 0.0042,0.433474 0.0067,0.8940958 0.0084,1.3620711 z"
         style="font-style:normal;font-variant:normal;font-weight:normal;font-stretch:normal;font-family:'Bebas Neue';-inkscape-font-specification:'Bebas Neue';fill:#009999;fill-opacity:1;stroke-width:0.38473469"
         id="path946"
         inkscape:connector-curvature="0"
         inkscape:original-d="m 32.552577,4.2851259 h 1.769779 v 9.2336331 h 1.692833 V 4.2851259 h 1.76978 V 2.7461871 h -5.232392 z" />
      <path
         d="m 40.250924,4.1245488 c 0.06953,5.436e-4 2.725805,0.023636 2.795333,0.024179 -0.0086,-0.4830864 -0.02322,-0.96251 -0.04933,-1.4184084 0.137914,1.165e-4 -4.618287,-0.00335 -4.480373,-0.00324 0.06626,1.6540346 0.05226,8.672291 0.02524,9.291318 0.565623,0.02878 1.130392,0.06034 1.695729,0.09451 0.04177,-0.805697 0.03215,-2.1860662 0.02929,-3.4523815 0.732834,0.01746 1.461854,0.036311 2.193644,0.056296 -0.0014,-0.5059162 -0.002,-0.9226419 -0.0022,-1.4490181 -0.731783,-0.015102 -1.460709,-0.029356 -2.193508,-0.042566 -6.94e-4,-0.9464314 6.48e-4,-2.1729681 -0.01378,-3.1006959 z"
         style="font-style:normal;font-variant:normal;font-weight:normal;font-stretch:normal;font-family:'Bebas Neue';-inkscape-font-specification:'Bebas Neue';fill:#009999;fill-opacity:1;stroke-width:0.38473469"
         id="path948"
         inkscape:connector-curvature="0"
         inkscape:original-d="m 40.208316,4.2851259 h 2.785479 V 2.7461871 H 38.515483 V 13.518759 h 1.692833 V 9.0712256 h 2.185293 V 7.5322868 h -2.185293 z" />
      <path
         d="m 43.837841,12.362269 c 1.50321,0.116008 2.974823,0.242561 4.475581,0.375817 0.02725,-0.380123 0.03978,-0.793421 0.04544,-1.221699 -0.935076,-0.05557 -1.850498,-0.109943 -2.787254,-0.16353 0.01119,-0.811372 0.0046,-7.4665203 -0.06917,-8.6202869 0.04239,4.01e-5 -1.735805,-0.00159 -1.693414,-0.00155 0.09195,1.5404431 0.07206,8.9624422 0.02881,9.6312482 z"
         style="font-style:normal;font-variant:normal;font-weight:normal;font-stretch:normal;font-family:'Bebas Neue';-inkscape-font-specification:'Bebas Neue';fill:#009999;fill-opacity:1;stroke-width:0.38473469"
         id="path950"
         inkscape:connector-curvature="0"
         inkscape:original-d="m 43.805587,13.518759 h 4.478312 V 11.97982 h -2.78548 V 2.7461871 h -1.692832 z" />
      <path
         d="m 49.063933,12.805014 c 0.505953,0.04528 1.183574,0.106282 1.689527,0.151563 0.04216,-0.588177 0.05734,-9.1095488 -0.01996,-10.2187926 -0.406086,-4.111e-4 -1.286959,-0.00131 -1.693045,-0.00172 0.08694,1.2590078 0.06934,9.431539 0.02348,10.068949 z"
         style="font-style:normal;font-variant:normal;font-weight:normal;font-stretch:normal;font-family:'Bebas Neue';-inkscape-font-specification:'Bebas Neue';fill:#009999;fill-opacity:1;stroke-width:0.38473469"
         id="path952"
         inkscape:connector-curvature="0"
         inkscape:original-d="m 49.035575,13.518759 h 1.692833 V 2.7461871 h -1.692833 z" />
      <path
         d="m 56.034111,2.7427792 c -0.310033,1.1748571 -0.863581,2.770706 -1.258523,3.9546514 -1.2e-5,-10e-8 -0.03051,-3.138e-4 -0.03052,-3.139e-4 -0.382176,-1.2581971 -0.814754,-2.7349922 -1.296028,-3.9566484 -0.08301,-7.91e-5 -1.671361,-0.00164 -1.75437,-0.00172 0.618017,1.4671693 1.295714,3.6754449 1.807106,5.2030135 -0.574908,1.6733216 -1.247336,3.7666487 -1.912276,5.0893897 0.526462,0.04673 1.054647,0.09307 1.580908,0.138126 0.518392,-1.132437 0.979526,-2.613253 1.404522,-3.945053 -1.2e-5,-2e-7 0.03052,5.094e-4 0.03051,5.092e-4 0.398453,1.2080598 1.027792,2.9976158 1.34195,4.1686278 0.59287,0.04418 1.186553,0.08558 1.779433,0.123094 -0.519604,-1.87903 -1.256196,-3.6974286 -1.877513,-5.5470703 0.418792,-1.242022 1.409168,-3.9820758 1.754116,-5.2254052 -0.03181,-2.25e-5 -1.5375,-0.00118 -1.569312,-0.0012 z"
         style="font-style:normal;font-variant:normal;font-weight:normal;font-stretch:normal;font-family:'Bebas Neue';-inkscape-font-specification:'Bebas Neue';fill:#009999;fill-opacity:1;stroke-width:0.38473469"
         id="path954"
         inkscape:connector-curvature="0"
         inkscape:original-d="M 56.029328,2.7461871 54.73662,6.7166492 H 54.70584 L 53.44391,2.7461871 h -1.75439 l 1.769779,5.232392 -1.892894,5.5401799 h 1.585107 l 1.385045,-4.2628607 h 0.03078 l 1.369656,4.2628607 h 1.785169 l -1.892895,-5.5401799 1.76978,-5.232392 z" />
    </g>
    <text
       xml:space="preserve"
       style="font-style:normal;font-weight:normal;font-size:15.38938808px;line-height:1.25;font-family:sans-serif;letter-spacing:0px;word-spacing:0px;fill:#009999;fill-opacity:1;stroke:none;stroke-width:0.38473469"
       x="2.0125396"
       y="54.244915"
       id="text916-1"><tspan
         sodipodi:role="line"
         id="tspan914-8"
         x="2.0125396"
         y="54.244915"
         style="font-style:normal;font-variant:normal;font-weight:normal;font-stretch:normal;font-family:'Bebas Neue';-inkscape-font-specification:'Bebas Neue';fill:#009999;fill-opacity:1;stroke-width:0.38473469">PACKETFLIX</tspan></text>
  </g>
</svg>
